<?xml version="1.0" encoding="UTF-8"?>
<svg version="1.1" xmlns="http://www.w3.org/2000/svg" width="24" height="24">
<path d="M0 0 C4.50797684 0.13041946 7.14507137 0.7056255 10.23828125 3.94140625 C11.28027537 5.13357398 12.30482191 6.34118901 13.3125 7.5625 C15.17357922 9.74863856 17.05903152 11.88231209 19 14 C19.66 14 20.32 14 21 14 C21.12375 14.804375 21.2475 15.60875 21.375 16.4375 C21.58125 17.283125 21.7875 18.12875 22 19 C22.66 19.33 23.32 19.66 24 20 C23.67 21.32 23.34 22.64 23 24 C22.01 24 21.02 24 20 24 C19.34 23.34 18.68 22.68 18 22 C17.34 21.87625 16.68 21.7525 16 21.625 C15.01 21.315625 15.01 21.315625 14 21 C13.61521484 20.13955078 13.61521484 20.13955078 13.22265625 19.26171875 C11.01683918 15.18130953 6.98203882 12.63290301 3.43359375 9.73046875 C0.51071891 6.45103133 0.21784548 4.31971649 0 0 Z " fill="#93A3A3" transform="translate(0,0)"/>
<path d="M0 0 C0.12375 0.804375 0.2475 1.60875 0.375 2.4375 C0.684375 3.7059375 0.684375 3.7059375 1 5 C1.66 5.33 2.32 5.66 3 6 C2.67 7.32 2.34 8.64 2 10 C1.01 10 0.02 10 -1 10 C-1.66 9.34 -2.32 8.68 -3 8 C-5.06874034 7.3574765 -5.06874034 7.3574765 -7 7 C-3.86206897 0 -3.86206897 0 0 0 Z " fill="#F1B71C" transform="translate(21,14)"/>
<path d="M0 0 C0 3 0 3 -1.8125 5.1875 C-4 7 -4 7 -7 7 C-3.86206897 0 -3.86206897 0 0 0 Z " fill="#EDD25C" transform="translate(21,14)"/>
</svg>
